<svg width="24" height="24" viewBox="0 0 24 24" fill="none" xmlns="http://www.w3.org/2000/svg">
<path d="M6.49036 2.85986H16.13C17.9825 2.85986 19.4914 4.37519 19.5001 6.22217V20.3101C19.5001 21.1058 19.2202 21.5464 18.9034 21.7329C18.5869 21.9191 18.0672 21.9495 17.3732 21.563L12.4933 18.853C12.1447 18.656 11.7176 18.5728 11.3185 18.5728C10.9675 18.5728 10.5951 18.6369 10.2716 18.7847L10.1368 18.853L5.25891 21.562C4.56526 21.9439 4.0447 21.9123 3.72668 21.7251C3.40909 21.5381 3.13005 21.0995 3.13 20.3101V6.22021C3.13 4.37551 4.63734 2.85986 6.49036 2.85986ZM11.9044 7.52783C10.8917 7.50402 9.88917 7.5202 9.19739 7.62646C9.02217 7.65338 8.85612 7.68738 8.70911 7.73193C8.56799 7.77473 8.41351 7.83704 8.28333 7.93311C8.22925 7.97302 8.1703 8.02515 8.11926 8.09131C8.05511 8.10767 7.9743 8.13238 7.91321 8.1665C7.74969 8.36886 7.74688 8.76585 7.82141 8.88916C7.85571 8.92673 7.91229 8.97523 7.93176 8.98877C7.94315 8.99607 7.96228 9.00706 7.96985 9.01123C7.98371 9.01871 7.99493 9.02395 7.99915 9.02588C8.00869 9.03024 8.0165 9.03378 8.01868 9.03467C8.03074 9.03959 8.04449 9.04486 8.04602 9.04541C8.0583 9.04987 8.07896 9.05675 8.10754 9.06689C8.15049 9.08214 8.21475 9.10429 8.30286 9.13525C8.33377 9.14629 8.36681 9.15796 8.40149 9.17041L8.44543 9.18604L8.49133 9.19385H8.49231H8.49524C8.49729 9.19417 8.50027 9.19521 8.50403 9.1958C8.51151 9.19697 8.52232 9.19856 8.53625 9.20068C8.56447 9.20498 8.60581 9.21071 8.65833 9.21826C8.76354 9.2334 8.91539 9.25473 9.10168 9.27783C9.47378 9.32397 9.98758 9.37947 10.5538 9.4165C11.1191 9.45347 11.7441 9.47224 12.3361 9.44385C12.9203 9.41582 13.5067 9.33933 13.9786 9.16943C14.1117 9.12167 14.2543 9.19171 14.2999 9.31885C14.3475 9.45175 14.2784 9.59343 14.1515 9.63916H14.1505C13.2341 9.96981 12.271 10.1401 11.3097 10.1401L11.089 11.0884C12.2781 11.675 13.3092 11.8609 14.1798 11.7661C15.0538 11.6708 15.7335 11.2954 16.214 10.8179C16.6874 10.3472 16.972 9.77296 17.0626 9.26318C17.1075 9.01022 17.1103 8.74329 17.0363 8.50244C16.9602 8.25517 16.7885 8.00061 16.4796 7.88916H16.4786C16.4001 7.86101 16.2936 7.84434 16.2228 7.8335C16.1316 7.81955 16.0148 7.80429 15.879 7.78857C15.6067 7.75703 15.2438 7.72154 14.8263 7.68701C13.9916 7.61798 12.9262 7.55186 11.9044 7.52783ZM15.1066 8.71533C15.3624 8.73864 15.5852 8.76105 15.7638 8.78174C15.8935 8.79676 15.997 8.81039 16.0714 8.82178C16.0754 8.82239 16.0794 8.82217 16.0831 8.82275C16.0931 8.8743 16.1006 8.96235 16.0782 9.08838C16.0254 9.38559 15.8438 9.77593 15.5089 10.1089C15.1806 10.4351 14.7082 10.7026 14.0714 10.772C13.9961 10.7802 13.9179 10.7842 13.837 10.7866C13.926 10.7616 14.0154 10.7381 14.1036 10.7104L14.4894 10.5806C15.1421 10.3461 15.4726 9.62781 15.2404 8.98096C15.2059 8.88499 15.1602 8.79662 15.1066 8.71533Z" fill="#FDFDFD" stroke="#FDFDFD"/>
</svg>
