<svg width="24" height="24" viewBox="0 0 24 24" fill="none" xmlns="http://www.w3.org/2000/svg">
<path d="M6.49036 2.86035H16.13C17.9825 2.86035 19.4914 4.37568 19.5001 6.22266V20.3105C19.5001 21.1063 19.2202 21.5469 18.9034 21.7334C18.5869 21.9196 18.0672 21.95 17.3732 21.5635L12.4933 18.8535C12.1447 18.6565 11.7176 18.5732 11.3185 18.5732C10.9675 18.5733 10.5951 18.6374 10.2716 18.7852L10.1368 18.8535L5.25891 21.5625C4.56526 21.9444 4.0447 21.9128 3.72668 21.7256C3.40909 21.5385 3.13005 21.0999 3.13 20.3105V6.2207C3.13 4.376 4.63734 2.86035 6.49036 2.86035ZM11.9044 7.52832C10.8917 7.5045 9.88917 7.52069 9.19739 7.62695C9.02217 7.65387 8.85612 7.68787 8.70911 7.73242C8.56799 7.77522 8.41351 7.83753 8.28333 7.93359C8.22925 7.97351 8.1703 8.02564 8.11926 8.0918C8.05511 8.10815 7.9743 8.13287 7.91321 8.16699C7.74969 8.36935 7.74688 8.76634 7.82141 8.88965C7.85571 8.92722 7.91229 8.97571 7.93176 8.98926C7.94315 8.99655 7.96228 9.00754 7.96985 9.01172C7.98371 9.0192 7.99493 9.02443 7.99915 9.02637C8.00869 9.03073 8.0165 9.03427 8.01868 9.03516C8.03074 9.04008 8.04449 9.04535 8.04602 9.0459C8.0583 9.05036 8.07896 9.05723 8.10754 9.06738C8.15049 9.08263 8.21475 9.10478 8.30286 9.13574C8.33377 9.14677 8.36681 9.15845 8.40149 9.1709L8.44543 9.18652L8.49133 9.19434H8.49231H8.49524C8.49729 9.19466 8.50027 9.1957 8.50403 9.19629C8.51151 9.19746 8.52232 9.19905 8.53625 9.20117C8.56447 9.20547 8.60581 9.2112 8.65833 9.21875C8.76354 9.23388 8.91539 9.25522 9.10168 9.27832C9.47378 9.32445 9.98758 9.37996 10.5538 9.41699C11.1191 9.45396 11.7441 9.47273 12.3361 9.44434C12.9203 9.41631 13.5067 9.33982 13.9786 9.16992C14.1117 9.12216 14.2543 9.19219 14.2999 9.31934C14.3475 9.45224 14.2784 9.59391 14.1515 9.63965H14.1505C13.2341 9.9703 12.271 10.1406 11.3097 10.1406L11.089 11.0889C12.2781 11.6755 13.3092 11.8614 14.1798 11.7666C15.0538 11.6713 15.7335 11.2959 16.214 10.8184C16.6874 10.3477 16.972 9.77345 17.0626 9.26367C17.1075 9.0107 17.1103 8.74378 17.0363 8.50293C16.9602 8.25566 16.7885 8.0011 16.4796 7.88965H16.4786C16.4001 7.8615 16.2936 7.84482 16.2228 7.83398C16.1316 7.82003 16.0148 7.80478 15.879 7.78906C15.6067 7.75752 15.2438 7.72203 14.8263 7.6875C13.9916 7.61847 12.9262 7.55235 11.9044 7.52832ZM15.1066 8.71582C15.3624 8.73913 15.5852 8.76154 15.7638 8.78223C15.8935 8.79724 15.997 8.81088 16.0714 8.82227C16.0754 8.82288 16.0794 8.82266 16.0831 8.82324C16.0931 8.87479 16.1006 8.96284 16.0782 9.08887C16.0254 9.38608 15.8438 9.77642 15.5089 10.1094C15.1806 10.4356 14.7082 10.703 14.0714 10.7725C13.9961 10.7807 13.9179 10.7847 13.837 10.7871C13.926 10.7621 14.0154 10.7386 14.1036 10.7109L14.4894 10.5811C15.1421 10.3466 15.4726 9.6283 15.2404 8.98145C15.2059 8.88548 15.1602 8.79711 15.1066 8.71582Z" fill="#FDFDFD" stroke="#FDFDFD"/>
</svg>
